<svg width="1335" height="1154" viewBox="0 0 120 120" fill="none" xmlns="http://www.w3.org/2000/svg">
<path d="M73.3129 20.2409L55.8132 20.3521L33.6854 78.9939L10.929 137.64L27.7999 137.533L73.3129 20.2409Z" fill="#00A3FF" stroke="black"/>
<path d="M124.187 78.9188L98.3124 20.0821L79.3127 20.2028L104.687 79.0427L80.0626 138.2L99.0622 138.08L124.187 78.9188Z" fill="#00A3FF" stroke="black"/>
<!--<path d="M175.317 20.5927L161.817 20.6785L126.062 137.908L142.561 137.803L169.479 46.1303L184.093 64.0378L207.479 45.8889L178.061 137.578L196.06 137.463L230.316 20.2432L213.316 20.3513L188.931 38.5066L175.317 20.5927Z" fill="#D7D7D7" stroke="black"/>
<path d="M245.812 113.343L221.908 113.495L218.483 125.18L215.052 136.062L262.051 135.763C292.549 135.4 296.947 110.822 297.314 98.3191C297.681 85.8165 297.11 66.3197 272.111 66.4786C272.111 66.4786 256.614 67.0771 256.551 57.0773C256.487 47.0775 264.769 41.0247 271.949 40.9791L316.54 40.6957L319.384 30.6774L322.321 20.6586L269.322 20.9954C255.517 21.0831 241.603 38.1719 240.022 52.6822C238.441 67.1925 243.732 85.6593 263.732 85.5322C283.731 85.4051 279.907 113.127 267.408 113.206L256.908 113.273L245.812 113.343Z" fill="#D7D7D7" stroke="black"/>
-->
</svg>
